<?xml version="1.0" encoding="utf-8"?>
<!-- Generator: Adobe Illustrator 16.0.0, SVG Export Plug-In . SVG Version: 6.00 Build 0)  -->
<!DOCTYPE svg PUBLIC "-//W3C//DTD SVG 1.1//EN" "http://www.w3.org/Graphics/SVG/1.1/DTD/svg11.dtd">
<svg version="1.1" id="Camada_1" xmlns="http://www.w3.org/2000/svg" xmlns:xlink="http://www.w3.org/1999/xlink" x="0px" y="0px"
	 width="160px" height="52px" viewBox="0 0 160 52" enable-background="new 0 0 160 52" xml:space="preserve">
<g id="Camada_2">
	<g id="Camada_1-2">
		<path fill="#FFFFFF" d="M26.368,8.996c0,1.389-0.008,2.772,0.006,4.159c0,0.299-0.07,0.388-0.382,0.4
			c-5.854,0.259-10.528,4.156-11.808,9.829c-1.558,6.901,3.23,13.88,10.237,14.919c6.716,0.993,12.802-3.25,14.184-9.892
			c0.138-0.688,0.216-1.386,0.233-2.087c0.007-0.261,0.093-0.338,0.352-0.338c2.822,0.007,5.649,0.013,8.469,0
			c0.425,0,0.349,0.247,0.344,0.486c-0.117,4.942-1.717,9.354-4.849,13.172c-3.704,4.513-8.49,7.133-14.284,7.842
			C17.59,48.854,7.043,41.023,5.075,29.85c-2.039-11.573,5.299-22.5,16.795-25c1.34-0.287,2.705-0.441,4.076-0.464
			c0.37-0.007,0.436,0.116,0.432,0.451C26.357,6.223,26.368,7.61,26.368,8.996z"/>
		<path fill="#FFFFFF" d="M47.895,43.018c0-1.371,0.011-2.74-0.009-4.108c0-0.351,0.098-0.438,0.442-0.455
			c5.63-0.289,10.167-3.905,11.627-9.247c1.915-7.02-2.798-14.344-9.965-15.479c-6.921-1.096-13.202,3.381-14.4,10.274
			c-0.105,0.525-0.151,1.059-0.14,1.594c0.014,0.291-0.07,0.41-0.39,0.41c-2.806-0.011-5.613-0.011-8.419,0
			c-0.42,0-0.398-0.212-0.389-0.498c0.167-5.008,1.79-9.481,5.012-13.327C34.918,7.828,39.6,5.28,45.24,4.539
			c11.208-1.475,21.779,6.218,23.912,17.369c2.264,11.848-5.543,23.248-17.395,25.378c-1.135,0.202-2.283,0.315-3.436,0.339
			c-0.361,0.008-0.441-0.105-0.437-0.45C47.905,45.79,47.895,44.402,47.895,43.018z"/>
		<path fill="#FFFFFF" d="M92.984,38.919c-7.084,0.06-12.428-4.425-13.388-10.952c-1.037-7.027,3.4-13.584,10.735-14.696
			c2.815-0.428,5.594-0.174,8.224,1.054c1.379,0.648,2.547,1.574,3.594,2.671c0.215,0.224,0.194,0.342-0.01,0.555
			c-1.272,1.347-2.541,2.701-3.787,4.076c-0.248,0.278-0.365,0.185-0.572-0.021c-1.039-1.068-2.217-1.926-3.704-2.254
			c-3.161-0.698-5.89,0.741-7.099,3.75c-0.768,1.909-0.779,3.847-0.055,5.765c1.355,3.588,5.396,5.054,8.918,3.261
			c0.844-0.442,1.618-1.003,2.303-1.666c0.209-0.196,0.322-0.185,0.518,0.015c1.203,1.229,2.408,2.457,3.634,3.664
			c0.241,0.238,0.16,0.348-0.022,0.549C99.639,37.559,96.387,38.988,92.984,38.919z"/>
		<path fill="#FFFFFF" d="M145.23,13.08c3.01,0,5.648,0.596,7.965,2.298c0.654,0.492,1.266,1.041,1.824,1.638
			c0.153,0.16,0.176,0.263,0.006,0.443c-1.305,1.384-2.604,2.778-3.892,4.18c-0.228,0.25-0.331,0.129-0.499-0.043
			c-1.041-1.069-2.213-1.934-3.699-2.272c-3.123-0.71-5.824,0.665-7.078,3.621c-0.855,2.018-0.857,4.071-0.027,6.087
			c1.424,3.46,5.4,4.815,8.852,3.056c0.827-0.436,1.59-0.988,2.262-1.639c0.216-0.203,0.328-0.23,0.556,0
			c1.187,1.222,2.39,2.429,3.597,3.632c0.196,0.194,0.247,0.299,0.029,0.551c-5.188,5.995-15.004,5.458-19.637-0.038
			c-3.231-3.835-4.055-8.225-2.463-12.936c1.543-4.571,4.863-7.297,9.564-8.33C143.456,13.14,144.344,13.056,145.23,13.08z"/>
		<path fill="#FFFFFF" d="M125.127,15.984c-3.729-2.911-7.995-3.53-12.504-2.329c-8.223,2.188-12.133,11.71-7.773,18.953
			c2.611,4.336,6.668,6.193,10.525,6.313c3.365,0.013,5.52-0.487,7.548-1.521C131.23,33.184,132.441,21.698,125.127,15.984z
			 M119.08,32.354c-3.951,1.627-8.342-0.895-8.957-5.139c-0.291-2.018,0.037-3.908,1.257-5.557c1.513-2.049,3.618-2.779,6.086-2.421
			c2.415,0.354,4.041,1.777,4.986,3.998c0.364,0.847,0.544,1.764,0.526,2.686C122.977,28.932,121.479,31.368,119.08,32.354z"/>
	</g>
</g>
</svg>
